HIERARCHY
ROOT Hips
{
 OFFSET 0.000000 0.000000 0.000000
 CHANNELS 6 Xposition Yposition Zposition Yrotation Xrotation Zrotation
 JOINT Chest
 {
  OFFSET 0.000000 9.585900 0.002600
  CHANNELS 3 Yrotation Xrotation Zrotation
  JOINT Chest2
  {
   OFFSET 0.000000 9.601200 -0.005300
   CHANNELS 3 Yrotation Xrotation Zrotation
   JOINT Chest3
   {
    OFFSET 0.000000 9.561800 0.000000
    CHANNELS 3 Yrotation Xrotation Zrotation
    JOINT Chest4
    {
     OFFSET 0.000000 9.552100 0.000000
     CHANNELS 3 Yrotation Xrotation Zrotation
     JOINT Neck
     {
      OFFSET 0.000000 14.453000 0.000000
      CHANNELS 3 Yrotation Xrotation Zrotation
      JOINT Head
      {
       OFFSET 0.000000 8.936500 -0.011300
       CHANNELS 3 Yrotation Xrotation Zrotation
       End Site
       {
        OFFSET 0.000000 17.073600 -0.006000
       }
      }
     }
     JOINT RightCollar
     {
      OFFSET -2.921100 9.558500 0.000000
      CHANNELS 3 Yrotation Xrotation Zrotation
      JOINT RightShoulder
      {
       OFFSET -13.519700 0.000000 0.000000
       CHANNELS 3 Yrotation Xrotation Zrotation
       JOINT RightElbow
       {
        OFFSET 0.000000 -29.696600 0.000000
        CHANNELS 3 Yrotation Xrotation Zrotation
        JOINT RightWrist
        {
         OFFSET 0.000000 -24.004700 0.000000
         CHANNELS 3 Yrotation Xrotation Zrotation
         End Site
         {
          OFFSET 0.000000 -17.728500 0.000000
         }
        }
       }
      }
     }
     JOINT LeftCollar
     {
      OFFSET 2.921100 9.558500 0.000000
      CHANNELS 3 Yrotation Xrotation Zrotation
      JOINT LeftShoulder
      {
       OFFSET 13.519700 0.000000 0.000000
       CHANNELS 3 Yrotation Xrotation Zrotation
       JOINT LeftElbow
       {
        OFFSET 0.000000 -29.696600 0.000000
        CHANNELS 3 Yrotation Xrotation Zrotation
        JOINT LeftWrist
        {
         OFFSET 0.000000 -24.004700 0.000000
         CHANNELS 3 Yrotation Xrotation Zrotation
         End Site
         {
          OFFSET 0.000000 -17.728500 0.000000
         }
        }
       }
      }
     }
    }
   }
  }
 }
 JOINT RightHip
 {
  OFFSET -7.771700 -0.012900 -0.001300
  CHANNELS 3 Yrotation Xrotation Zrotation
  JOINT RightKnee
  {
   OFFSET 0.000000 -40.869800 0.001200
   CHANNELS 3 Yrotation Xrotation Zrotation
   JOINT RightAnkle
   {
    OFFSET 0.000000 -39.717900 0.002100
    CHANNELS 3 Yrotation Xrotation Zrotation
    JOINT RightToe
    {
     OFFSET 0.000000 -4.965400 11.033500
     CHANNELS 3 Yrotation Xrotation Zrotation
     End Site
     {
      OFFSET 0.000000 -1.423100 5.872300
     }
    }
   }
  }
 }
 JOINT LeftHip
 {
  OFFSET 7.771700 -0.012900 -0.001300
  CHANNELS 3 Yrotation Xrotation Zrotation
  JOINT LeftKnee
  {
   OFFSET 0.000000 -40.869800 0.001200
   CHANNELS 3 Yrotation Xrotation Zrotation
   JOINT LeftAnkle
   {
    OFFSET 0.000000 -39.717900 0.002100
    CHANNELS 3 Yrotation Xrotation Zrotation
    JOINT LeftToe
    {
     OFFSET 0.000000 -4.965400 11.033500
     CHANNELS 3 Yrotation Xrotation Zrotation
     End Site
     {
      OFFSET 0.000000 -1.423100 5.872300
     }
    }
   }
  }
 }
}
MOTION
Frames: 14
Frame Time: 0.008333
0.000000 85.388000 0.000000 0.000000 -5.767877 0.000000 0.000000 11.653817 0.000000 0.000000 -5.885947 0.000000 0.000000 -0.000000 0.000000 0.000000 -0.000000 0.000000 0.000000 12.528835 0.000000 0.000000 0.711642 0.000000 0.000000 -0.000000 0.000000 0.000000 0.000000 -90.000000 0.000000 -2.309062 0.000000 0.000000 2.309062 0.000000 0.000000 -0.000000 0.000000 0.000000 -0.000000 90.000000 0.000000 -2.309062 0.000000 0.000000 2.309062 0.000000 0.000000 8.520406 0.000000 0.000000 1.905762 0.000000 -0.000000 -4.658285 0.000000 0.000000 -0.000000 0.000000 0.000000 8.520406 0.000000 0.000000 1.905762 0.000000 -0.000000 -4.658285 0.000000 0.000000 -0.000000 0.000000
1.674061 52.280970 36.539941 171.850867 -38.667966 -2.328969 6.207595 26.066907 3.848560 0.932056 4.502425 0.598457 1.490665 7.077465 1.001256 5.059022 21.340157 3.665830 -0.591476 20.182865 0.126354 -1.114801 1.688985 0.406429 -8.863877 -0.214979 -7.734319 1.631077 -5.323649 5.314842 -83.296011 -36.745511 122.816925 10.826499 15.130084 74.912345 -8.221190 0.139064 4.320915 5.323952 -8.552220 1.222159 72.951990 -26.877383 -127.743722 -7.324268 22.548519 -66.634999 -5.842261 -42.438743 4.745619 -136.671560 88.160136 -132.970732 -2.985019 -9.751242 -2.555584 0.018483 -0.191022 0.026225 0.238497 -39.164497 5.796196 68.027183 83.506883 57.546592 -5.612119 -12.126848 10.203575 0.479508 1.209172 0.276021
1.669114 52.284316 36.540175 171.862041 -38.681399 -2.321395 6.197479 26.090038 3.831938 0.932890 4.517826 0.593226 1.496681 7.096356 0.998419 5.048602 21.352373 3.649213 -0.634940 20.099682 0.133586 -1.196700 1.535038 0.433312 -8.915849 -0.249844 -7.761393 1.667252 -5.330248 5.267009 -83.243179 -36.690521 122.880505 10.776091 15.098813 74.855341 -8.214831 0.158519 4.238324 5.298047 -8.561913 1.323687 72.875206 -26.834898 -127.749429 -7.417455 22.609391 -66.801805 -5.820997 -42.420142 4.720238 -136.598277 88.165602 -132.900392 -2.992680 -9.756829 -2.548840 0.018908 -0.187615 0.027062 0.287131 -39.149376 5.756487 67.928414 83.502673 57.469488 -5.621938 -12.126868 10.213907 0.478863 1.211879 0.271165
1.664201 52.287043 36.538997 171.868751 -38.690619 -2.307120 6.191399 26.126891 3.801172 0.929917 4.502445 0.602424 1.495635 7.148811 0.973960 5.041594 21.330829 3.640649 -0.677012 20.011053 0.135999 -1.274673 1.370865 0.451123 -8.946893 -0.289289 -7.765021 1.683657 -5.335271 5.191674 -83.204427 -36.636181 122.957660 10.742945 15.076810 74.857279 -8.199930 0.130872 4.217461 5.291294 -8.554971 1.374200 72.748829 -26.754867 -127.721153 -7.521937 22.692527 -66.981052 -5.799985 -42.407850 4.690206 -136.645675 88.169084 -132.950544 -2.998291 -9.761238 -2.545974 0.018763 -0.187068 0.031525 0.343217 -39.137010 5.711584 67.828381 83.499782 57.389608 -5.620341 -12.134745 10.211439 0.485101 1.215759 0.272904
1.656331 52.289551 36.533767 171.891496 -38.702760 -2.275674 6.153658 26.150593 3.745289 0.928845 4.505554 0.603097 1.492898 7.154327 0.966421 5.024236 21.342657 3.615755 -0.719222 19.920044 0.133694 -1.351544 1.202188 0.460606 -8.968909 -0.323393 -7.762035 1.685234 -5.347200 5.104541 -83.180372 -36.586059 123.046351 10.735779 15.048833 74.905484 -8.183519 0.103100 4.198042 5.273969 -8.479130 1.408082 72.643603 -26.686369 -127.757368 -7.639472 22.801496 -67.166855 -5.767870 -42.395894 4.620804 -137.063239 88.168092 -133.372624 -3.007374 -9.776801 -2.541263 0.020993 -0.187291 0.031794 0.404595 -39.118369 5.642881 67.823328 83.484353 57.377748 -5.624547 -12.135550 10.238910 0.469010 1.206879 0.250191
1.654599 52.291659 36.525337 171.903349 -38.717199 -2.261698 6.135895 26.169170 3.721155 0.927224 4.513846 0.592329 1.494300 7.147888 0.974734 5.012832 21.347970 3.600993 -0.785500 19.828551 0.112507 -1.428505 1.032001 0.461287 -8.999987 -0.355943 -7.767662 1.669304 -5.364120 5.005540 -83.171511 -36.536222 123.144024 10.749961 15.020140 74.997339 -8.184284 0.074529 4.163805 5.262089 -8.401809 1.435571 72.517479 -26.607777 -127.791413 -7.767193 22.932498 -67.357666 -5.738020 -42.379022 4.589399 -137.791694 88.176863 -134.105392 -3.031555 -9.789779 -2.535764 0.016679 -0.190136 0.037228 0.445550 -39.100397 5.609678 67.842548 83.488394 57.401710 -5.630697 -12.148323 10.249631 0.464096 1.208608 0.244893
1.656367 52.292897 36.512978 171.912765 -38.731848 -2.251828 6.126771 26.188589 3.699608 0.918407 4.511187 0.578791 1.496052 7.151780 0.977522 5.010438 21.347274 3.599446 -0.859885 19.725023 0.089450 -1.503562 0.860962 0.452132 -9.025935 -0.398184 -7.766892 1.634900 -5.385734 4.897187 -83.172973 -36.489247 123.245303 10.776001 14.989123 75.123168 -8.188383 0.033800 4.128380 5.248701 -8.308235 1.454681 72.400571 -26.547914 -127.841178 -7.891614 23.068314 -67.553537 -5.702640 -42.362223 4.562407 -138.327164 88.171739 -134.634827 -3.054327 -9.806672 -2.524762 0.019881 -0.194517 0.035632 0.470458 -39.083625 5.589383 67.942233 83.496216 57.500577 -5.620513 -12.166604 10.250248 0.442417 1.207227 0.248739
1.660828 52.292188 36.497605 171.920312 -38.737477 -2.240958 6.110587 26.194219 3.666710 0.910617 4.504085 0.577250 1.493146 7.154243 0.974593 4.985049 21.347406 3.576821 -0.908157 19.620166 0.075105 -1.574590 0.689047 0.435871 -9.020861 -0.437090 -7.754000 1.587158 -5.417979 4.784787 -83.179899 -36.450696 123.344313 10.799295 14.952855 75.266348 -8.167508 -0.008097 4.099433 5.248541 -8.242420 1.495441 72.280064 -26.477990 -127.875133 -7.996182 23.187333 -67.745876 -5.671248 -42.356450 4.540343 -138.786100 88.153818 -135.087224 -3.069423 -9.828402 -2.514372 0.025918 -0.198858 0.032163 0.482919 -39.076955 5.573402 68.112043 83.504505 57.666177 -5.611429 -12.190585 10.262497 0.421111 1.207174 0.235313
1.665730 52.289460 36.478993 171.943992 -38.733282 -2.226396 6.071198 26.185271 3.621154 0.910434 4.507122 0.580227 1.479282 7.145260 0.961944 4.888005 21.313144 3.506517 -0.884704 19.550049 0.080026 -1.640069 0.516114 0.417456 -8.952243 -0.437607 -7.724362 1.537962 -5.462552 4.673169 -83.195574 -36.420552 123.439296 10.811027 14.915943 75.406029 -8.083010 -0.013403 4.085498 5.254104 -8.185674 1.547478 72.224198 -26.442752 -127.883362 -8.054251 23.289220 -67.984938 -5.647151 -42.363288 4.502223 -139.551419 88.130643 -135.848672 -3.075994 -9.858507 -2.512472 0.027953 -0.203086 0.034426 0.497001 -39.077117 5.543081 68.216736 83.520309 57.770111 -5.618710 -12.220161 10.266632 0.417153 1.217774 0.228659
1.670302 52.284699 36.457483 172.009554 -38.717325 -2.220531 5.986977 26.160270 3.550748 0.911008 4.515864 0.585904 1.460055 7.128951 0.947038 4.853735 21.295438 3.477387 -0.919878 19.455864 0.062941 -1.699802 0.341373 0.398336 -8.938422 -0.465000 -7.706605 1.491657 -5.516587 4.564925 -83.217877 -36.397285 123.529120 10.810063 14.879684 75.521081 -8.036108 -0.002066 4.080638 5.249760 -8.174757 1.573207 72.123673 -26.389504 -127.933342 -8.132544 23.341683 -68.141393 -5.652027 -42.380497 4.445830 -141.384179 88.124004 -137.684304 -3.113206 -9.903980 -2.508585 0.034671 -0.201534 0.028264 0.475389 -39.084334 5.514349 68.207428 83.547968 57.744551 -5.660607 -12.247168 10.263023 0.457049 1.242254 0.235801
1.676305 52.277993 36.434043 172.058977 -38.689533 -2.199746 5.913504 26.123157 3.475508 0.905773 4.509899 0.582443 1.418153 7.075060 0.912510 4.851739 21.318817 3.475784 -0.950642 19.359407 0.044949 -1.751368 0.162336 0.376258 -8.918529 -0.496647 -7.681357 1.443748 -5.577691 4.458096 -83.238885 -36.381126 123.608502 10.795610 14.841259 75.600064 -8.009549 -0.059022 4.043028 5.254445 -8.106821 1.637715 72.051192 -26.366899 -127.986905 -8.182219 23.354428 -68.293318 -5.627037 -42.418866 4.383958 -142.335793 88.080824 -138.632296 -3.125548 -9.944330 -2.499272 0.042070 -0.207854 0.030132 0.462701 -39.107425 5.474424 68.389730 83.576444 57.911324 -5.697739 -12.296759 10.260692 0.484733 1.268784 0.247918
1.690199 52.273143 36.406011 172.070318 -38.682364 -2.188643 5.886588 26.103018 3.437409 0.881632 4.471236 0.559325 1.421629 7.086251 0.921188 4.812711 21.305353 3.448672 -0.975514 19.258429 0.026064 -1.791904 -0.025106 0.350773 -8.889754 -0.537500 -7.648898 1.393042 -5.643776 4.349259 -83.257531 -36.371363 123.676330 10.764783 14.804764 75.641355 -7.978503 -0.127417 4.009085 5.266788 -8.005811 1.699831 72.011704 -26.370263 -128.056392 -8.215747 23.344223 -68.464529 -5.597888 -42.432446 4.369507 -143.071551 88.036094 -139.363928 -3.119067 -9.976927 -2.502115 0.023241 -0.220644 0.044290 0.446950 -39.107500 5.483880 68.591221 83.610789 58.093859 -5.697996 -12.344573 10.265304 0.481583 1.283310 0.240378
1.704705 52.268316 36.375188 172.089564 -38.675666 -2.177138 5.848849 26.087476 3.391873 0.872625 4.459148 0.554008 1.407294 7.068622 0.912413 4.815842 21.317811 3.449387 -1.036856 19.120671 -0.004917 -1.821215 -0.224671 0.324054 -8.873696 -0.560720 -7.631195 1.311132 -5.773083 4.247150 -83.273739 -36.362643 123.735912 10.718248 14.771325 75.647920 -7.976848 -0.209832 3.982233 5.252510 -7.985520 1.734613 71.963079 -26.371393 -128.059029 -8.246462 23.327742 -68.612949 -5.585032 -42.440784 4.345081 -144.137109 87.997947 -140.420732 -3.124718 -10.027487 -2.509646 0.023908 -0.221985 0.044944 0.425470 -39.105547 5.486376 68.814535 83.640689 58.301207 -5.707432 -12.392662 10.263008 0.490377 1.306293 0.235276
1.730256 52.269717 36.336755 172.063384 -38.724413 -2.192880 5.877395 26.125901 3.412793 0.863472 4.445590 0.548749 1.392749 7.048735 0.903780 4.754071 21.285753 3.408836 -1.027930 19.021416 -0.016241 -1.839383 -0.437228 0.297571 -8.833562 -0.636648 -7.577991 1.278384 -5.823698 4.119279 -83.288504 -36.348075 123.789912 10.658698 14.735692 75.628891 -7.917984 -0.252469 3.968490 5.229483 -7.977982 1.760233 71.912785 -26.383234 -128.039378 -8.272445 23.311265 -68.725942 -5.580801 -42.379763 4.413940 -144.484284 87.954475 -140.771230 -3.143979 -10.069656 -2.500632 0.043022 -0.227095 0.034088 0.400824 -39.051218 5.551391 69.277470 83.662719 58.763905 -5.684370 -12.436590 10.260988 0.462891 1.292819 0.213853
